<?xml version="1.0" standalone="no"?>
<!DOCTYPE svg PUBLIC "-//W3C//DTD SVG 20010904//EN"
 "http://www.w3.org/TR/2001/REC-SVG-20010904/DTD/svg10.dtd">
<svg version="1.0" xmlns="http://www.w3.org/2000/svg"
 width="16.000000pt" height="16.000000pt" viewBox="0 0 16.000000 16.000000"
 preserveAspectRatio="xMidYMid meet">
<metadata>
Created by potrace 1.11, written by Peter Selinger 2001-2013
</metadata>
<g transform="translate(0.000000,16.000000) scale(0.004762,-0.004762)"
fill="#000000" stroke="none">
<path d="M765 3218 c-52 -30 -50 -5 -48 -527 0 -267 4 -745 7 -1061 4 -316 9
-763 11 -993 4 -459 4 -453 66 -500 31 -22 97 -37 125 -27 10 3 102 5 204 4
102 -1 475 -5 830 -9 637 -7 753 -8 799 -6 12 1 39 17 58 36 34 34 35 38 31
93 -2 36 -11 67 -23 82 -10 14 -83 77 -163 140 -79 63 -151 122 -160 130 -9 8
-37 31 -62 50 -24 19 -52 42 -61 50 -8 8 -93 78 -189 155 -250 203 -521 424
-550 449 -14 11 -144 118 -289 236 -145 118 -275 225 -290 237 -17 14 -23 25
-16 31 6 6 82 58 170 116 88 58 167 110 175 116 23 15 885 587 1125 745 116
76 222 152 236 167 46 50 51 121 14 183 -42 72 -148 101 -212 60 -24 -16 -320
-247 -698 -546 -60 -48 -148 -117 -195 -153 -47 -37 -100 -79 -119 -94 -19
-15 -93 -73 -165 -130 -72 -56 -138 -108 -146 -115 -123 -98 -241 -187 -249
-187 -6 0 -11 17 -12 38 0 20 -2 64 -4 97 -1 33 -6 134 -9 225 -4 91 -9 203
-11 250 -6 131 -15 342 -20 478 -6 132 -15 160 -61 180 -32 15 -73 15 -99 0z
m565 -1952 c14 -11 63 -52 110 -91 47 -38 94 -78 105 -87 11 -9 121 -101 245
-204 124 -103 241 -201 261 -218 20 -17 118 -98 217 -181 100 -82 180 -151
178 -153 -2 -2 -210 -5 -462 -8 -253 -3 -566 -6 -697 -8 -131 -1 -240 1 -243
5 -3 5 -7 50 -9 101 -6 130 -13 307 -20 483 -4 83 -8 186 -10 230 -3 44 -7
156 -11 248 l-6 169 158 -132 c88 -73 170 -142 184 -154z"/>
</g>
</svg>
