<svg xmlns="http://www.w3.org/2000/svg" viewBox="0 0 1174.6725 503.25244"><path fill="#e8e8e8" d="M1072 502c-20-.6-38.3-1.6-40.8-2.2-6.7-1.8-14.3-8-18.2-14.6-3-5-3.5-7.4-3.5-14.8 0-7.3.6-9.8 3.4-14.6 1.8-3.2 4.8-7 6.5-8.3 3-2.5 3.2-2.6 1.3-8.5-1-3.4-3.6-27-5.8-52.3-2.2-25.5-4.3-46.8-4.6-47.4-.4-.6-.8-6-1-11.8-.3-6-.8-13.4-1.2-16.5-1-7.5 2.5-12.4 8.7-12.4 4.2 0 9.3 4.5 9.3 8.3 0 .8.4 1.5 1 1.5.5 0 6.5-4.8 13.4-10.6 6.8-6 14.2-11.2 16.4-11.8 5.2-1.4 54.6 6.6 60 9.7 11.5 6.6 12.8 24.2 2.3 32.4-7 5.6-11 5.6-32.4.2-11-2.8-20.2-5-20.7-5s-7.6 5-15.8 11.2c-10.4 8-14.7 12-14.4 13.5l10.4 43.4c8 33.8 9.7 42 8.7 45.3-1 3.8-.8 4 2.3 4 2 .2 13.5 1 26 1.7l22.4 1.6 3-3 3-3-16-6.5c-9-3.6-17.7-7.5-19.5-8.6-4.7-3-8.6-11-8.6-17.3 0-7 9.5-50.4 12.3-56.2 2.2-5 9-10 13.2-10 4 0 67 30.7 69.7 34 1 1.3 2 3.5 2 4.7 0 3.6-4.8 8.8-8.2 8.8-1.7 0-12-2.2-23-5-11-2.7-20.5-5-21.2-5-.7 0-1.3 2.5-1.3 5.5v5.4l26.2 9c23.5 8.2 26.7 9.6 30.5 13.8 4.7 5.2 7.6 14.6 6.4 20.3-1 5-29.8 59.4-33.4 63.3-1.5 1.7-5.6 4.4-9 6-7 3.3-3 3.2-60 1.5zm-251-9.3c-3.7-1.5-30-29.2-113-118.4-59.4-64-108.5-116.5-109-116.7-.5-.2-1.6 42.2-2.5 94.3-1.7 103.8-1.3 100-9.4 105.6-2.8 2-5.6 2.8-10.7 2.8-8 0-13.5-3.2-16.8-10-2-4-1.6-15.6 5.6-208.4 4.4-112.2 8-206 8.4-208.4 1-6.5 7.6-12.5 14-12.5 5.8 0 11 3.7 13.2 9.3 1.5 4 1.5 5.2-1 134.3L599 200l7-6.6C739 67.8 807.5 3.7 810.6 2c7.8-4.4 18-1.3 22.3 6.6 2.6 5 3 9 1 14.6-1 2.8-30.3 28.4-113 98.5L609 216.5l32 32.7c174.2 177 206.2 210 208.2 213.4 1.7 3 2 6 1.8 11-.5 8.8-5 15.3-12.7 18.8-6.2 2.8-11 3-17.3.3zm-681-30.5C81.4 455.5 29.5 450 25 450c-4.6-.2-10-.8-11.8-1.5-5.3-2-11.6-8.7-13-13.6-.7-3.4 3-56.2 14.3-195.5C28 67.2 29.8 48.5 32 46c3.3-3.6 10.2-3 13 1.3 2 3 2 12.3-1.3 173-2 93.6-3.5 177.3-3.5 186V422l6.4.8c3.6.4 50 2 102.8 3.3 53 1.5 100.6 3 105.8 3.6l9.5 1V424c-.3-13 10.2-23.7 22.8-23.5 4 0 18.7 4.6 46.8 14.6l41.6 14.5s0-1.5-.3-3.4l-3.2-19c-1.3-8.6-2.7-15.7-3-16 0-.2-17.6-4.5-38.8-9.6-23.8-5.7-39.7-10-41.7-11.6-8.5-6.3-9.8-18.3-3.2-30.7 3-5.6 8.7-11.5 30-30.7 24-21.5 27-24 32-24.5 3-.4 15.4-1.6 27.6-2.7l22.2-2 6 3c13.7 6.7 16.6 23.5 6 34.2-7 7-11.4 7.5-33.6 3.8-10.7-1.8-20.7-3.3-22.2-3.3-3 0-39.3 21-38.2 22.2.4.4 15.8 8.7 34.2 18.5 26.8 14.2 34.6 19 39.3 23.8 3.5 3.6 6.3 7.7 6.7 10l5.7 32c4.8 27 5 28.5 3 32.2-1 2-3.7 4.8-6 5.8-3.7 1.8-7.4 1.4-61-7l-58-8.7c-.4 0 .2 1.3 1.2 2.8 4.7 6.8 1 20-6.7 24-6.6 3.5-23.5 2-134-10.6zm514.2.7l-16.6-7-4 2.6c-11.2 6.7-24.8-1.3-24.8-14.7 0-11 6.4-66.3 8.2-70.2 3-7 7.2-8 27-5.8 22 2.4 25 2.3 31-.8 8.4-4.4 18 0 19.3 9 1.4 8.8 4.7 77 4 80-2 7-13 13.7-23 13.6-2.6 0-11.8-3-21-7zm5.7-29l7.6-.8V391l-11.6.7c-6.4.5-12 1.3-12.3 1.7-.5.4-1.2 10-1.6 21l-.7 20.4h5.5c3 0 9-.4 13-.8zm-175.6 31.6c-3.4-1.7-9-5.5-12.5-8.5l-32.2-26.3C413.4 409 410.8 406 411 398c0-5.6 1.3-16.5 2.7-25.4.6-4.3 1.6-16.4 2-27 .5-10.6 1.6-20.7 2.6-23 2-4.7 4.7-6.7 31-22.4 15.3-9 21.5-12 25.8-12.5 6.6-.7 39.6 1.5 43 2.8 2.8 1 10.8 13.5 10.8 16.8 0 1.3.6 4 1.4 6 .8 1.8 2.5 8.7 3.8 15.3 4.4 22.3 3.2 26.7-10.7 39.2-11.8 10.6-25.3 19.7-34.7 23.5-3.7 1.4-9.6 4-13 5.6-3.7 1.5-7 2.8-7.6 2.8-.6 0-2 .6-3 1.2-1.4 1 .8 3.8 11.3 14.4 7.2 7.2 13.6 13.2 14 13.2.7 0 12-8.2 25-18.2C541 391.2 544 389.8 549 395c5 5 3 8.4-20.2 39.4-27 36-30 38-44.4 31.2zm-42.2-97.2c2-2 9.6-4.3 28.8-8.7l28.8-6.7c2.4-.7 2.7-1.4 2.2-5.4-.3-2.6-1-7.8-1.3-11.7l-.8-7-10.5-2.2-10.5-2-17.4 7-17.5 7-4.5 15c-3.7 12.2-4.3 15.3-3 16.2 2.3 1.4 2.4 1.4 5.7-1.6zm526 65.3c-6-2.7-11-8.3-13.2-14.6l-1.5-4.4-16.4.7c-9 .4-26.8 1-39.7 1l-23.3.4-4.6-4.4c-6.5-6.2-8-9.6-9.3-22.7l-3-26.6c-2.6-20.8-2.5-27.6.6-32.6 2.5-4 11.2-9.3 15.3-9.3 1 0 3.3-.6 5-1.3 2.3-1 10.4-1 32.2.6 16 1 29.2 1.8 29.3 1.7 0-.2-1-7.8-2.4-17-2.7-18-2.5-19.3 3.5-22.7 3-1.7 3.7-1.7 6.6 0 2 1 4 2.7 4.5 3.8 3.3 6 49 120.2 49.5 124 1.8 12.7-10.2 26-23.4 26-2.4 0-6.7-1-9.5-2.3zm-18.4-48c-.4-.8-2-10.4-3.5-21.2-1.6-10.8-3.3-20.2-3.7-21-.6-1-8 0-23.3 2.7-12.3 2.2-22.7 4.4-23.2 4.8-.6.7 1 26.6 2.3 32.2.5 2.7 1.2 2.8 15.8 3.2l26 .6c7.8.2 10.2 0 9.8-1.3zm-729.6 35.7c-5-2.5-9-8.3-9-13.5 0-6.6 12.6-73.6 14.6-77.7 5.3-10.6 20.5-10.5 26.3.2 2.2 4 2 5.2-3 43-6 42-6.7 44.4-14.3 48-5.5 2.6-9 2.6-14.5 0zm-99-13C104 406.7 87 405 84 405c-10.3-.3-19-7.4-19-15.7 0-2 3.2-15 7-29 3.7-14 6.8-27.5 6.8-29.7 0-13.8 21.7-18.3 28-5.8 2.7 5 2.6 6.2-2 27.7-2 10.3-3.4 19-3 19.4.4.3 10.8 1 23 1.3l22.6.6 1.3-5 5.2-21c5.3-21.5 10-27 23.3-27 10 0 18.6 7.4 20 17 .4 4-1.3 10.8-7.7 31.3-11.5 36.2-11.6 36.3-16.8 40-5.8 4-9.8 3.8-51.5-.8zm684-10.8c-3-1.5-5.5-4.4-7.3-8l-2.8-5.4-.2-117.5c0-74.4.3-118.7 1-120.6 1.8-4.3 6.3-8 12-10 7.8-2.4 18 2.3 21.2 10 1 2.2 1.2 40.3 1 120.7-.4 128.8 0 124-7.8 129.5-5.2 3.7-12 4.3-17.3 1.4zm-48-64.4c-5-4-5.5-7-5.7-27 0-10-.8-52.3-1.6-94-1.4-70-1.3-76 .6-79.7 6-11.8 24-11.8 30.2 0 2 3.8 2 9.6.7 79-.8 41.4-1.5 83.3-1.5 93.3s-.7 20-1.4 22.2c-2.6 8.5-14.4 12-21.3 6.2zm-528.4-42c-1.4-1.5-2.5-4-2.5-5.7 0-1.6 4-13.3 8.7-26 9.6-25.2 12.6-29.5 22.5-32.2 16.3-4.4 32 11.2 27.6 27.3-2 7.6-5 10.6-26.5 25.2-21.3 14.6-25 16-29.7 11.3z"/></svg>
